<svg width="240" height="48" viewBox="0 0 240 48" fill="none" xmlns="http://www.w3.org/2000/svg">
<path d="M0 48V0H34.5882V14.5882H15.4412V19.2941H34.5882V27.7647H15.4412V48H0Z" fill="#4E9BB9"/>
<path d="M17.2939 29.3936H34.3724V33.7025H23.4116V43.8872H25.9606V37.8156H40.2351V48.0003H17.2939V29.3936Z" fill="#4E9BB9"/>
<path d="M40.2354 48V30.4719C43.0801 32.6681 48.6048 37.8312 47.946 40.9142C47.2872 43.9971 42.5311 46.9226 40.2354 48Z" fill="#4E9BB9"/>
<path d="M77.304 17.768V19.96H72.728V22.328H76.152V24.456H72.728V29H69.992V17.768H77.304ZM82.806 29.128C81.9313 29.128 81.142 28.9413 80.438 28.568C79.7447 28.1947 79.1953 27.6613 78.79 26.968C78.3953 26.2747 78.198 25.464 78.198 24.536C78.198 23.6187 78.4007 22.8133 78.806 22.12C79.2113 21.416 79.766 20.8773 80.47 20.504C81.174 20.1307 81.9633 19.944 82.838 19.944C83.7127 19.944 84.502 20.1307 85.206 20.504C85.91 20.8773 86.4647 21.416 86.87 22.12C87.2753 22.8133 87.478 23.6187 87.478 24.536C87.478 25.4533 87.27 26.264 86.854 26.968C86.4487 27.6613 85.8887 28.1947 85.174 28.568C84.47 28.9413 83.6807 29.128 82.806 29.128ZM82.806 26.76C83.3287 26.76 83.7713 26.568 84.134 26.184C84.5073 25.8 84.694 25.2507 84.694 24.536C84.694 23.8213 84.5127 23.272 84.15 22.888C83.798 22.504 83.3607 22.312 82.838 22.312C82.3047 22.312 81.862 22.504 81.51 22.888C81.158 23.2613 80.982 23.8107 80.982 24.536C80.982 25.2507 81.1527 25.8 81.494 26.184C81.846 26.568 82.2833 26.76 82.806 26.76ZM91.6655 21.56C91.9855 21.0693 92.3855 20.6853 92.8655 20.408C93.3455 20.12 93.8788 19.976 94.4655 19.976V22.872H93.7135C93.0308 22.872 92.5188 23.0213 92.1775 23.32C91.8362 23.608 91.6655 24.12 91.6655 24.856V29H88.9295V20.072H91.6655V21.56ZM104.589 20.072V29H101.853V27.784C101.576 28.1787 101.197 28.4987 100.717 28.744C100.248 28.9787 99.7253 29.096 99.1493 29.096C98.4666 29.096 97.8639 28.9467 97.3413 28.648C96.8186 28.3387 96.4133 27.896 96.1253 27.32C95.8373 26.744 95.6933 26.0667 95.6933 25.288V20.072H98.4133V24.92C98.4133 25.5173 98.5679 25.9813 98.8773 26.312C99.1866 26.6427 99.6026 26.808 100.125 26.808C100.659 26.808 101.08 26.6427 101.389 26.312C101.699 25.9813 101.853 25.5173 101.853 24.92V20.072H104.589ZM117.947 19.976C119.056 19.976 119.936 20.312 120.587 20.984C121.248 21.656 121.579 22.5893 121.579 23.784V29H118.859V24.152C118.859 23.576 118.704 23.1333 118.395 22.824C118.096 22.504 117.68 22.344 117.147 22.344C116.613 22.344 116.192 22.504 115.883 22.824C115.584 23.1333 115.435 23.576 115.435 24.152V29H112.715V24.152C112.715 23.576 112.56 23.1333 112.251 22.824C111.952 22.504 111.536 22.344 111.003 22.344C110.469 22.344 110.048 22.504 109.739 22.824C109.44 23.1333 109.291 23.576 109.291 24.152V29H106.555V20.072H109.291V21.192C109.568 20.8187 109.931 20.5253 110.379 20.312C110.827 20.088 111.333 19.976 111.899 19.976C112.571 19.976 113.168 20.12 113.691 20.408C114.224 20.696 114.64 21.1067 114.939 21.64C115.248 21.1493 115.669 20.7493 116.203 20.44C116.736 20.1307 117.317 19.976 117.947 19.976ZM134.339 21.32C134.136 20.9467 133.843 20.664 133.459 20.472C133.085 20.2693 132.643 20.168 132.131 20.168C131.245 20.168 130.536 20.4613 130.003 21.048C129.469 21.624 129.203 22.3973 129.203 23.368C129.203 24.4027 129.48 25.2133 130.035 25.8C130.6 26.376 131.373 26.664 132.355 26.664C133.027 26.664 133.592 26.4933 134.051 26.152C134.52 25.8107 134.861 25.32 135.075 24.68H131.603V22.664H137.555V25.208C137.352 25.8907 137.005 26.5253 136.515 27.112C136.035 27.6987 135.421 28.1733 134.675 28.536C133.928 28.8987 133.085 29.08 132.147 29.08C131.037 29.08 130.045 28.84 129.171 28.36C128.307 27.8693 127.629 27.192 127.139 26.328C126.659 25.464 126.419 24.4773 126.419 23.368C126.419 22.2587 126.659 21.272 127.139 20.408C127.629 19.5333 128.307 18.856 129.171 18.376C130.035 17.8853 131.021 17.64 132.131 17.64C133.475 17.64 134.605 17.9653 135.523 18.616C136.451 19.2667 137.064 20.168 137.363 21.32H134.339ZM141.806 21.56C142.126 21.0693 142.526 20.6853 143.006 20.408C143.486 20.12 144.019 19.976 144.606 19.976V22.872H143.854C143.171 22.872 142.659 23.0213 142.318 23.32C141.977 23.608 141.806 24.12 141.806 24.856V29H139.07V20.072H141.806V21.56ZM149.978 29.128C149.103 29.128 148.314 28.9413 147.61 28.568C146.917 28.1947 146.367 27.6613 145.962 26.968C145.567 26.2747 145.37 25.464 145.37 24.536C145.37 23.6187 145.573 22.8133 145.978 22.12C146.383 21.416 146.938 20.8773 147.642 20.504C148.346 20.1307 149.135 19.944 150.01 19.944C150.885 19.944 151.674 20.1307 152.378 20.504C153.082 20.8773 153.637 21.416 154.042 22.12C154.447 22.8133 154.65 23.6187 154.65 24.536C154.65 25.4533 154.442 26.264 154.026 26.968C153.621 27.6613 153.061 28.1947 152.346 28.568C151.642 28.9413 150.853 29.128 149.978 29.128ZM149.978 26.76C150.501 26.76 150.943 26.568 151.306 26.184C151.679 25.8 151.866 25.2507 151.866 24.536C151.866 23.8213 151.685 23.272 151.322 22.888C150.97 22.504 150.533 22.312 150.01 22.312C149.477 22.312 149.034 22.504 148.682 22.888C148.33 23.2613 148.154 23.8107 148.154 24.536C148.154 25.2507 148.325 25.8 148.666 26.184C149.018 26.568 149.455 26.76 149.978 26.76ZM164.917 20.072V29H162.181V27.784C161.904 28.1787 161.525 28.4987 161.045 28.744C160.576 28.9787 160.053 29.096 159.477 29.096C158.795 29.096 158.192 28.9467 157.669 28.648C157.147 28.3387 156.741 27.896 156.453 27.32C156.165 26.744 156.021 26.0667 156.021 25.288V20.072H158.741V24.92C158.741 25.5173 158.896 25.9813 159.205 26.312C159.515 26.6427 159.931 26.808 160.453 26.808C160.987 26.808 161.408 26.6427 161.717 26.312C162.027 25.9813 162.181 25.5173 162.181 24.92V20.072H164.917ZM169.619 21.336C169.885 20.92 170.253 20.584 170.723 20.328C171.192 20.072 171.741 19.944 172.371 19.944C173.107 19.944 173.773 20.1307 174.371 20.504C174.968 20.8773 175.437 21.4107 175.779 22.104C176.131 22.7973 176.307 23.6027 176.307 24.52C176.307 25.4373 176.131 26.248 175.779 26.952C175.437 27.6453 174.968 28.184 174.371 28.568C173.773 28.9413 173.107 29.128 172.371 29.128C171.752 29.128 171.203 29 170.723 28.744C170.253 28.488 169.885 28.1573 169.619 27.752V33.256H166.883V20.072H169.619V21.336ZM173.523 24.52C173.523 23.8373 173.331 23.304 172.947 22.92C172.573 22.5253 172.109 22.328 171.555 22.328C171.011 22.328 170.547 22.5253 170.163 22.92C169.789 23.3147 169.603 23.8533 169.603 24.536C169.603 25.2187 169.789 25.7573 170.163 26.152C170.547 26.5467 171.011 26.744 171.555 26.744C172.099 26.744 172.563 26.5467 172.947 26.152C173.331 25.7467 173.523 25.2027 173.523 24.52ZM185.341 17.768C186.525 17.768 187.559 18.0027 188.445 18.472C189.33 18.9413 190.013 19.6027 190.493 20.456C190.983 21.2987 191.229 22.2747 191.229 23.384C191.229 24.4827 190.983 25.4587 190.493 26.312C190.013 27.1653 189.325 27.8267 188.429 28.296C187.543 28.7653 186.514 29 185.341 29H181.133V17.768H185.341ZM185.165 26.632C186.199 26.632 187.005 26.3493 187.581 25.784C188.157 25.2187 188.445 24.4187 188.445 23.384C188.445 22.3493 188.157 21.544 187.581 20.968C187.005 20.392 186.199 20.104 185.165 20.104H183.869V26.632H185.165ZM194.134 19.144C193.654 19.144 193.259 19.0053 192.95 18.728C192.651 18.44 192.502 18.088 192.502 17.672C192.502 17.2453 192.651 16.8933 192.95 16.616C193.259 16.328 193.654 16.184 194.134 16.184C194.603 16.184 194.987 16.328 195.286 16.616C195.595 16.8933 195.75 17.2453 195.75 17.672C195.75 18.088 195.595 18.44 195.286 18.728C194.987 19.0053 194.603 19.144 194.134 19.144ZM195.494 20.072V29H192.758V20.072H195.494ZM201.108 29.128C200.33 29.128 199.636 28.9947 199.028 28.728C198.42 28.4613 197.94 28.0987 197.588 27.64C197.236 27.1707 197.039 26.648 196.996 26.072H199.7C199.732 26.3813 199.876 26.632 200.132 26.824C200.388 27.016 200.703 27.112 201.076 27.112C201.418 27.112 201.679 27.048 201.86 26.92C202.052 26.7813 202.148 26.6053 202.148 26.392C202.148 26.136 202.015 25.9493 201.748 25.832C201.482 25.704 201.05 25.5653 200.452 25.416C199.812 25.2667 199.279 25.112 198.852 24.952C198.426 24.7813 198.058 24.52 197.748 24.168C197.439 23.8053 197.284 23.32 197.284 22.712C197.284 22.2 197.423 21.736 197.7 21.32C197.988 20.8933 198.404 20.5573 198.948 20.312C199.503 20.0667 200.159 19.944 200.916 19.944C202.036 19.944 202.916 20.2213 203.556 20.776C204.207 21.3307 204.58 22.0667 204.676 22.984H202.148C202.106 22.6747 201.967 22.4293 201.732 22.248C201.508 22.0667 201.21 21.976 200.836 21.976C200.516 21.976 200.271 22.04 200.1 22.168C199.93 22.2853 199.844 22.4507 199.844 22.664C199.844 22.92 199.978 23.112 200.244 23.24C200.522 23.368 200.948 23.496 201.524 23.624C202.186 23.7947 202.724 23.9653 203.14 24.136C203.556 24.296 203.919 24.5627 204.228 24.936C204.548 25.2987 204.714 25.7893 204.724 26.408C204.724 26.9307 204.575 27.4 204.276 27.816C203.988 28.2213 203.567 28.5413 203.012 28.776C202.468 29.0107 201.834 29.128 201.108 29.128ZM211.854 29L209.134 25.256V29H206.398V17.16H209.134V23.704L211.838 20.072H215.214L211.502 24.552L215.246 29H211.854ZM225.105 20.072V29H222.369V27.784C222.092 28.1787 221.713 28.4987 221.233 28.744C220.764 28.9787 220.241 29.096 219.665 29.096C218.982 29.096 218.38 28.9467 217.857 28.648C217.334 28.3387 216.929 27.896 216.641 27.32C216.353 26.744 216.209 26.0667 216.209 25.288V20.072H218.929V24.92C218.929 25.5173 219.084 25.9813 219.393 26.312C219.702 26.6427 220.118 26.808 220.641 26.808C221.174 26.808 221.596 26.6427 221.905 26.312C222.214 25.9813 222.369 25.5173 222.369 24.92V20.072H225.105ZM230.702 29.128C229.923 29.128 229.23 28.9947 228.622 28.728C228.014 28.4613 227.534 28.0987 227.182 27.64C226.83 27.1707 226.633 26.648 226.59 26.072H229.294C229.326 26.3813 229.47 26.632 229.726 26.824C229.982 27.016 230.297 27.112 230.67 27.112C231.011 27.112 231.273 27.048 231.454 26.92C231.646 26.7813 231.742 26.6053 231.742 26.392C231.742 26.136 231.609 25.9493 231.342 25.832C231.075 25.704 230.643 25.5653 230.046 25.416C229.406 25.2667 228.873 25.112 228.446 24.952C228.019 24.7813 227.651 24.52 227.342 24.168C227.033 23.8053 226.878 23.32 226.878 22.712C226.878 22.2 227.017 21.736 227.294 21.32C227.582 20.8933 227.998 20.5573 228.542 20.312C229.097 20.0667 229.753 19.944 230.51 19.944C231.63 19.944 232.51 20.2213 233.15 20.776C233.801 21.3307 234.174 22.0667 234.27 22.984H231.742C231.699 22.6747 231.561 22.4293 231.326 22.248C231.102 22.0667 230.803 21.976 230.43 21.976C230.11 21.976 229.865 22.04 229.694 22.168C229.523 22.2853 229.438 22.4507 229.438 22.664C229.438 22.92 229.571 23.112 229.838 23.24C230.115 23.368 230.542 23.496 231.118 23.624C231.779 23.7947 232.318 23.9653 232.734 24.136C233.15 24.296 233.513 24.5627 233.822 24.936C234.142 25.2987 234.307 25.7893 234.318 26.408C234.318 26.9307 234.169 27.4 233.87 27.816C233.582 28.2213 233.161 28.5413 232.606 28.776C232.062 29.0107 231.427 29.128 230.702 29.128ZM237.368 19.144C236.888 19.144 236.493 19.0053 236.184 18.728C235.885 18.44 235.736 18.088 235.736 17.672C235.736 17.2453 235.885 16.8933 236.184 16.616C236.493 16.328 236.888 16.184 237.368 16.184C237.837 16.184 238.221 16.328 238.52 16.616C238.829 16.8933 238.984 17.2453 238.984 17.672C238.984 18.088 238.829 18.44 238.52 18.728C238.221 19.0053 237.837 19.144 237.368 19.144ZM238.728 20.072V29H235.992V20.072H238.728Z" fill="#4E9BB9"/>
</svg>
